<svg width="182" height="187" xmlns="http://www.w3.org/2000/svg" xmlns:xlink="http://www.w3.org/1999/xlink"><defs><path id="a" d="M0 .38h23.996v18.46H0z"/><path id="c" d="M.01.64h84.488v12.39H.01z"/></defs><g fill="none" fill-rule="evenodd"><path d="M122.404 48.156c.773 6.396-3.782 12.2-10.174 12.965l-24.51 2.96c-6.39.77-12.195-3.788-12.965-10.173-.773-6.392 3.786-12.194 10.174-12.965l24.516-2.955c6.385-.771 12.189 3.782 12.96 10.168" fill="#C8E9EF"/><path d="M123.028 85.818l-1.618 2.227-35.519.953-.085.007-.026-.091-8.207-26.2-1.4-4.48v-.009l-.011-.028-.41-1.3c-.005-.01-.016-.01-.005-.02l-.07-.213 1.36-.213 1.783-.271 2.656-.408 3.215-.5.512-.079 6.708-1.037 1.783-.27 1.968-.307 6.691-1.033 13.836-2.133 6.197-.959.074 1.04v.046l.056 1.023.052.976.46 33.28z" fill="#C8E9EF"/><path d="M120.777 96.772c.214.466-4.834 6.906-4.834 6.906l-1.641.64-9.735 3.753-.056.019-.577.223-9.776-4.46-.093-.046-4.877-2.23-1.579-.715-.12-.717v-.026c-.075-.473-.185-1.15-.299-1.934a454.32 454.32 0 0 1-.94-6.224v-.01c-.2-1.468-.359-2.619-.359-2.954v-.096l.427-.064 12.571-2.03 20.967-3.394s.039.587.104 1.525c.01.351.037.76.058 1.208.21 3.808.612 10.31.76 10.626" fill="#C8E9EF"/><path d="M104.016 135.703v.01c-.065.147-.138.288-.201.426-.868 1.738-1.636 2.453-1.636 2.576 0 .037-.02.07-.056.1-.13.14-.503.278-1.005.429-.762.221-1.87.482-2.927.694-.258.06-.52.102-.77.149-.875.186-1.674.326-2.165.43l-.316.044c-.056.012-.103.02-.138.03-.067.019-.095.019-.095.019-.035-.134-.084-.263-.112-.382-.067-.195-.12-.389-.177-.577-.065-.205-.119-.407-.175-.612-.316-1.04-.604-2.046-.882-3.029-5.852-20.302-6.68-29.028-6.234-36.794v-.028c.017-.333.038-.67.064-1.003.03-.426.063-.852.104-1.273 0 0 .156.02.452.093.735.15 2.316.521 4.227 1.18.568.196 1.153.417 1.767.66 3.792 1.525 8.26 4.126 10.405 8.316.147.296.298.594.42.91.326.772.568 1.591.704 2.472 2.36 14.16.438 21.583-1.254 25.16" fill="#C8E9EF"/><path d="M18.843 53.762c-.173.103-.056.4.257.402.599.01 1.485-.007 1.816-.022.11-.005.095.09.049.145-.06.05-1.363.1-2.318.257-.562.095-.982.186-.925.464.075.448 2.856-.121 2.936.024.074.045.031.143-.08.162-.41.113-1.218.19-2.007.307-.68.09-.886.218-.906.469.074.67 2.2-.013 3.05.067.082.013.12.117-.001.16-.315.114-2.05.177-2.772.36-.424.1-.428.697.192.664 1.001.013 2.15-.076 2.909-.121.914-.047 1.327-.065 1.353.08.032.227-.469.275-.975.411-.689.173-.925.566-.8 1.011.34-.091.962-.268 1.583-.342.42-.04.9-.272 1.233-.349.884-.188 5.105.213 5.446.123 0 0-.246-3.873-.26-4.802 0 0-1.972-.01-2.575.054-1.49.153-2.958-.054-4.549.128-.864.108-2.068.19-2.656.348" fill="#FACFC4"/><path d="M134.907 8.515s-5.125 27.425-12.619 39.863l-19.274-10.653c.623-.867 4.158-6.436 4.97-7.464 4.393-5.567 11.045-13.1 15.606-18.172.87-.976 1.675-1.86 2.365-2.616 1.663-1.837 2.701-2.969 2.701-2.969l1.796 1.123 4.455.888zm8.141 113.482l-.27.224c-.49.41-1.598 1.301-2.72 2.174-.263.195-.522.39-.773.577-.454.335-.892.65-1.273.9-.577.401-1.03.652-1.223.66-.049 0-.075-.008-.095-.036-.019-.027-.157-.055-.41-.104a14.686 14.686 0 0 1-1.72-.426c-.175-.047-.352-.112-.547-.177-3.762-1.3-11.137-5.26-19.837-18.247a10.224 10.224 0 0 1-1.197-2.39c-.018-.045-.028-.08-.048-.128-3.038-8.753 5.91-19.188 5.91-19.188 6.226 5.575 11.282 11.131 21.536 30.903.577 1.134 1.182 2.314 1.804 3.54.279.568.567 1.134.863 1.718" fill="#C8E9EF"/><path d="M158.294 143.981c.177.289-1.43 1.363-2.153 1.823-.213.137-.347.221-.347.221-.461-.14-.938-.307-1.403-.465-3.611-1.338-9.365-1.942-14.9-7.693-2.454-2.537-4.554-8.967-5.473-12.077a78.011 78.011 0 0 1-.482-1.759l1.718-.331 3.577-.706 3.948-.772.15-.028c.025.046.519.733 1.31 1.831.12.166.24.334.37.51 3.716 5.214 12.486 17.412 13.685 19.446" fill="#C8E9EF"/><g transform="translate(0 24.421)"><mask id="b" fill="#fff"><use xlink:href="#a"/></mask><path fill="#F83C37" mask="url(#b)" d="M23.996.38L0 7.766 22.15 18.84z"/></g><path d="M99.408 14.542c-.201-.069-.153-.396.164-.473.599-.15 1.496-.338 1.839-.402.11-.016.072-.113.01-.158-.066-.035-1.395.22-2.397.287-.588.035-1.038.046-1.042-.253-.032-.471 2.913-.548 2.956-.713.065-.062 0-.151-.118-.144-.443-.018-1.27.094-2.101.162-.704.067-.947-.014-1.022-.266-.082-.69 2.223-.499 3.064-.778.082-.031.097-.149-.037-.16-.347-.045-2.115.3-2.893.285-.445 0-.59-.605.049-.719 1.007-.249 2.187-.43 2.963-.558.934-.17 1.357-.246 1.351-.397-.022-.24-.541-.167-1.087-.188-.735-.01-1.066-.36-1.048-.833.372.014 1.037.046 1.687-.026.431-.056.968.068 1.323.061.942-.02 5.111-1.415 5.474-1.402 0 0 .667 3.97.87 4.913 0 0-1.992.47-2.612.552-1.545.19-2.982.747-4.633.935-.891.095-2.131.294-2.76.275" fill="#FACFC4"/><path d="M131.635 4.874l-1.184 2.753.337 4.175-2.883.111-4.315.175-13.517.548-.175.002-1.216-4.702s4.594-1.865 14.497-2.9c5.446-.568 8.456-.162 8.456-.162" fill="#C8E9EF"/><path d="M93.405 55.665a.62.62 0 0 1-.612.637l-1.167.013a.623.623 0 0 1-.635-.616l-.022-1.176a.631.631 0 0 1 .612-.64l1.173-.016a.632.632 0 0 1 .633.618l.018 1.18zm3.369-.047a.622.622 0 0 1-.609.637l-1.169.015a.628.628 0 0 1-.638-.62l-.019-1.171a.626.626 0 0 1 .61-.644l1.17-.015a.624.624 0 0 1 .633.62l.022 1.178z" fill="#FD494F"/><path d="M100.015 55.573a.627.627 0 0 1-.614.638l-1.167.011a.624.624 0 0 1-.637-.618l-.019-1.174a.621.621 0 0 1 .615-.639l1.163-.016a.633.633 0 0 1 .638.616l.02 1.182z" fill="#004753"/><path d="M108.495 64.568a2.794 2.794 0 0 1-2.333 3.19 2.793 2.793 0 0 1-3.185-2.339 2.798 2.798 0 0 1 2.338-3.187 2.789 2.789 0 0 1 3.18 2.336" fill="#9DC4D8"/><path d="M107.23 63.14a2.795 2.795 0 0 1-2.336 3.183 2.787 2.787 0 0 1-3.181-2.337 2.786 2.786 0 0 1 2.336-3.18 2.787 2.787 0 0 1 3.181 2.334" fill="#004753"/><path d="M108.468 73.228a2.797 2.797 0 0 1-2.336 3.19 2.793 2.793 0 0 1-3.182-2.34 2.794 2.794 0 0 1 2.336-3.188 2.794 2.794 0 0 1 3.182 2.338" fill="#9DC4D8"/><path d="M107.088 72.17a2.785 2.785 0 0 1-2.333 3.18 2.787 2.787 0 0 1-3.184-2.33 2.791 2.791 0 0 1 2.333-3.187 2.785 2.785 0 0 1 3.184 2.337" fill="#004753"/><path d="M118.758 73.241a1.446 1.446 0 0 1-1.32 1.557 1.442 1.442 0 0 1-1.558-1.322l-1.042-12.698a1.44 1.44 0 0 1 1.32-1.557 1.439 1.439 0 0 1 1.554 1.318l1.046 12.702zm-4.408.584a1.443 1.443 0 1 1-2.876.238l-1.046-12.7a1.444 1.444 0 0 1 2.878-.238l1.044 12.7z" fill="#FD494F"/><path d="M27.048 25.616s-8.962 77.587-2.764 146.545" stroke="#004753" stroke-width=".796" stroke-linecap="round"/><path d="M125.56 21.742c-3.02 4.78-7.487 10.676-12.537 11.763-2.492.536-6.235-.196-6.736-1.568 4.397-5.565 12.123-14.152 16.684-19.222l-13.516.547c2.424-3.53 10.45-5.355 14.035-4.116a6.948 6.948 0 0 1 1.846.95 5.82 5.82 0 0 1 1.951 2.442c1.223 2.852.32 5.96-1.727 9.204" fill="#9DC4D8"/><path d="M127.952 12.194c1.878-.59 5.484-1.977 6.816-2.435 1.09-.372.114-5.433-3.236-5.106-.375.04-4.97 4.691-5.257 5.16-1.037 1.677 1.134 2.554 1.677 2.38" fill="#004753"/><g transform="translate(96.792 173.332)"><mask id="d" fill="#fff"><use xlink:href="#c"/></mask><path d="M10.981 4.368S.345 3.432.034 4.998C-.5 7.674 8.008 6.874 8.008 6.874l6.417-.313s24.207 7.712 61.13 6.295c10.546-.41 10.19-4.84 6.896-6.898C78.698 3.613 60.87.214 41.478.683c-26.113.631-30.497 3.685-30.497 3.685" fill="#BCCED8" mask="url(#d)"/></g><path d="M85.1 55.084c-.138.065-.272.13-.41.188a50 50 0 0 1-1.755.778 45.13 45.13 0 0 1-6.774 2.148c-4.68 1.106-10.023 1.67-16.761 2.025-.92.047-1.783-.01-2.6-.158a8.655 8.655 0 0 1-1.236-.289c-2.89-.854-5.028-2.779-6.437-4.504a18.732 18.732 0 0 1-1.19-1.636 13.774 13.774 0 0 1-.774-1.339 3.05 3.05 0 0 1-.193-.372s.9-1.506 3.278-2.73a6.8 6.8 0 0 1 .52-.261 8.73 8.73 0 0 1 .82-.343 12.18 12.18 0 0 1 1.003-.335c.14-.037.285-.076.428-.119.18-.058.37-.104.566-.16 7.626-2.036 22.355-4.32 24.779-4.683.212-.028.335-.056.335-.056s1.375 1.04 2.963 2.517c3.16 2.918 7.198 7.536 3.438 9.329" fill="#C8E9EF"/><path d="M56.374 59.814s-.288-.01-.811-.038c-1.04-.055-3.02-.15-5.441-.27-7.777-.38-20.202-1.003-21.484-1.139-.026 0-.038 0-.058-.013-.609-.063-.907-.12-.907-.12l-.02-1.04-.093-4.135.01-.026.122-.02 23.292-4.591c.009 0 .009-.01.009-.01l.482-.092.114.271 1.904 4.458 2.881 6.765z" fill="#C8E9EF"/><path d="M115.155 41.774c0 2.128-8.836 3.846-19.738 3.846s-19.738-1.718-19.738-3.846c0-2.126 8.836-3.844 19.738-3.844s19.738 1.718 19.738 3.844" fill="#004753"/><path d="M81.652 44.02s-16.133-5.148-12.427-26.008C71.71 4.018 84.336-.2 95.565.844c8.057.745 18.933 6.582 20.277 19.18 1.416 13.259-5.702 22.024-5.702 22.024" stroke="#004753" stroke-width=".744"/><path d="M101.667 165.015s-.463.418-1.078.986c-1.172 1.076-2.9 2.695-3.12 3.038-.3.447-2.493-22.204-3.141-29.053a25.251 25.251 0 0 1-.084-.947l-.102-.994 6.299-7.358s1.28 1.755 3.372 5.452c.48.828.985 1.757 1.532 2.777 2.973 5.603-3.678 26.099-3.678 26.099" fill="#C8E9EF"/><path d="M89.652 88.55l-3.76.447-.086.008-.026-.091-8.207-26.201-1.4-4.479v-.01l-.01-.027c-4.684 1.106-10.024 1.672-16.762 2.025-.92.049-1.784-.01-2.6-.158.027.12.044.188.044.188s-3.974 1.7-6.634-.644c-.035-.035-.07-.063-.09-.102-7.776-.38-20.201-1.004-21.484-1.14-.026 0-.037 0-.055-.013a12.44 12.44 0 0 1-.909-.119l-.02-1.04c1.256-1.04 4.143-2.186 10.679-2.526 2.328-.123 5.656-.57 9.606-1.033.473-.056.962-.112 1.467-.168a184.65 184.65 0 0 1 4.088-.417c.493-.048.993-.095 1.505-.132 6.865-.573 14.68-.761 22.121.55 1.599.278 3.056 1.084 4.356 2.305.218.196.42.397.616.611 6.168 6.56 8.715 22.309 7.56 32.167" fill="#9DC4D8"/><path d="M101.531 166.058l-3.825 3.924s1.307 5.039.223 6.664c-1.083 1.625-.223 3.358 2.215 1.191.96-.852 1.147-2.915 1.756-4.3 1.021-2.33 1.6-2.338 2.216-4.184.618-1.849-2.585-3.295-2.585-3.295M56.845 60.252s-3.974 1.7-6.634-.644c-.035-.036-.07-.064-.09-.1-.958-.93-1.144-2.529-.993-4.237.054-.596.156-1.21.277-1.804.39-1.923 1.039-3.706 1.362-4.532.123-.306.198-.484.198-.484s.01-.012.02-.028c.01 0 .01-.01.01-.01.107-.123.545-.558 1.133-.752.527-.176 1.236-.128 1.458.315l.028.058c.275.696.817 2.693 1.384 4.886a489.31 489.31 0 0 1 1.802 7.144l.045.188m100.425 86.301l5.214-1.688s3.943 3.395 5.879 3.144c1.936-.253 3.112 1.288.09 2.513-1.188.484-3.12-.263-4.634-.331-2.544-.112-2.805.402-4.737.135-1.93-.262-1.811-3.773-1.811-3.773" fill="#004753"/><path d="M95.82 125.986c1.142 8.23-2.2 7.923-2.458 10.025-5.854-20.302-6.682-29.028-6.235-36.794v-.028c.017-.333.039-.67.063-1.005a454 454 0 0 1-.94-6.223v-.01c-.2-1.468 5.9-.44 5.9-.44s1.615 10.193 1.916 12.296c1.526 10.632.825 15.481 1.754 22.179m4.77 40.016c-1.173 1.076-2.9 2.693-3.12 3.038-.302.446-2.495-22.205-3.142-29.055.083.073.175.153.268.242.111.093.234.205.344.335.834.847 1.811 2.154 2.51 4.034 1.79 4.875 2.812 13.701 3.14 21.406" fill="#9DC4D8"/><path d="M92.926 134.684s-.728 3.352.147 5.1c.875 1.753 2.477 3.501 3.063 2.918.581-.584 8.02-6.124 8.02-6.124l-.291-1.751-10.94-.143z" fill="#004753"/><path d="M156.14 145.803c-.212.137-.346.221-.346.221-.462-.137-.936-.307-1.402-.465-3.613-1.338-9.366-1.942-14.9-7.693-2.455-2.535-4.555-8.965-5.474-12.077-3.762-1.3-11.137-5.26-19.837-18.247a10.304 10.304 0 0 1-1.199-2.39c-.017-.045-.026-.08-.046-.128 5.965-1.516 15.516 6.568 24.184 16.082.578.623 3.472 3.885 3.472 3.885-.073.07-4.564 1.256-4.374 1.435 6.455 6.096 17.813 15.79 19.922 19.377" fill="#9DC4D8"/><path d="M124.177 88.747l-3.297.367-35.376 3.242a1.501 1.501 0 0 1-.839-.147c-.493-.247-.925-.748-1.147-1.394a3.799 3.799 0 0 1-.154-.681 3.712 3.712 0 0 1-.019-.352c0-.743.257-1.402.676-1.819.259-.262.586-.426.94-.467l5.06-.566 1.378-.156 29.21-2.56 3.026-.329c.25-.032.491.01.72.093.73.281 1.316 1.106 1.419 2.13.145 1.347-.564 2.535-1.597 2.639m21.28 34.913s-.303-3.417-1.662-4.828c-1.353-1.409-3.408-2.602-3.79-1.874-.383.731-5.83 8.242-5.83 8.242l.8 1.582 10.482-3.121z" fill="#004753"/><path d="M23.713 172.246l69.401 10.27" stroke="#BCCED8" stroke-width=".998" stroke-linecap="round"/><path d="M103.28 24.231c-.175.335-1.106.748-1.294.825l-.022.014-.04.01c-.039.01-.03.097-.06.134l-.034-.045-.157-.288-.22-.42-1.267-2.393-.229-.42-.631-1.179a.768.768 0 0 1 .244-1.059.73.73 0 0 1 1.042.268l.458.717.12-.036.152.268.642 1.13 1.322 2.329a.178.178 0 0 1-.026.145m-10.903 1.074a.898.898 0 0 0 .428 1.208.89.89 0 0 0 1.199-.4l1.204-2.412c.218-.447.015-.992-.426-1.214a.91.91 0 0 0-1.214.4l-1.191 2.418z" fill="#FACFC4"/><path d="M93.264 32.206s3.873-.484 5.07-1.229c.145-.095.205 5.709.205 5.709s-4.711.147-5.275-4.48" fill="#F6A09F"/><path d="M98.557 32.493a.504.504 0 0 0-.108.02c-.486.084-.964.24-1.33.32a6.654 6.654 0 0 1-.157.038c-.02-.006-.03.001-.041 0l-.246-1.294-.327-1.73-1.121-5.976-.028-.155-.212-1.081-.052-.296.002-.008-.179-.941-.01-.004-.113-.63-.046-.234-.123-.694-.054-.285-.16-.825-.036-.217-.175-.883-.037-.223.981-.192.773-.134.469-.076 1.463-.28.1-.012a1.11 1.11 0 0 1 .248-.028c.595-.063 1.191.033 1.677.27.365.17.67.413.895.737.091.125.194.251.274.383.08.14.138.276.18.43l.04.064.238 2.071.113.946c.008.05.013.104.026.167.082.635.144 1.6.177 2.684.011.153.013.304.015.455 0 .232.007.47.017.716a55.65 55.65 0 0 1-.082 4.058l-.004.13c-.136 2.134-.914 2.39-3.047 2.709" fill="#FACFC4"/><path d="M93.407 17.036s-3.121-.268-3.138 6.45c-.013 4.774.93 9.8 5.193 9.59a8.543 8.543 0 0 0 1.655-.244l.921-16.237-4.63.441z" fill="#FACFC4"/><path d="M101.022 18.076s-.045-.01-.138-.013a5.42 5.42 0 0 0-2.963.6c-.804.426-1.629 1.122-2.31 2.252a8.694 8.694 0 0 0-.287.534 9.402 9.402 0 0 0-.389.882v.008c-.024.069-.048.128-.067.2a10.26 10.26 0 0 0-.27.863 41.186 41.186 0 0 0-.59 2.693c-.374 2.122-.638 4.413-.811 6.472-.308 3.706-.35 6.675-.35 6.675l-2.253.216-7.786.726s6.081-18.474 7.463-22.357c1.269-3.531 8.01-6.484 10.35-.914.151.353.285.74.4 1.163" fill="#004753"/><path d="M95.672 20.665c-.51 2.084-1.493 10.055 2.586 10.066 2.833.004 3.408-1.16 3.408-1.16l-.477 10.42-10.757.39 3.133-18.071 2.107-1.645z" fill="#004753"/><path d="M92.955 24.7c-.162 2.288-.423 4.34-1.739 4.248-1.318-.095-2.254-2.03-2.088-4.319.163-2.295 1.362-4.07 2.678-3.98 1.318.094 1.312 1.758 1.149 4.051" fill="#C8E9EF"/><path d="M102.982 24.307c-.388.06-3.483.049-1.921 1.214.705.523 1.7-.799 2.308-1.316l-.387.102z" fill="#F6A09F"/><path d="M101.983 21.757c-.176-.006-.353-.01-.502-.017a55.518 55.518 0 0 1-.564-.03 7.925 7.925 0 0 0-.96-.063c-.157-.01-.317-.01-.477-.01-.57-.001-1.137.012-1.724.005-.17-.004-.337-.004-.515-.017a9.534 9.534 0 0 1-1.037-.08c-.22-.026-.458-.054-.696-.08a3.911 3.911 0 0 0-.183-.017c-.191-.019-.385-.033-.567-.058l-.01-.003c-.51-.058-.992-.123-1.299-.205-.179-.12-.058-.426.27-.426.272-.01.61-.004.916.001.353.012.681.025.888.026.024.004.054.004.07.006.017.006.038-.002.052-.015.049-.007.05-.063.025-.106-.008-.011-.015-.015-.02-.024-.04-.04-.492-.07-1.062-.121-.43-.037-.917-.088-1.34-.16-.584-.103-1.02-.196-.962-.493.054-.295 1.3-.147 2.18-.041.474.046.84.087.87.035.079-.045.036-.149-.081-.166a5.81 5.81 0 0 0-.844-.154c-.376-.05-.81-.11-1.243-.173-.698-.105-.912-.237-.934-.495.055-.466 1.081-.287 2.017-.159.441.067.86.129 1.145.105.088-.006.13-.121.002-.159-.155-.055-.633-.104-1.182-.162-.605-.057-1.3-.128-1.698-.232-.433-.106-.437-.724.209-.682.426-.001.882.004 1.314.03.631.03 1.24.071 1.703.105.95.06 1.38.074 1.402-.07.04-.234-.484-.292-1.011-.435a1.38 1.38 0 0 1-.378-.149.786.786 0 0 1-.31-.233c-.172-.19-.21-.424-.14-.67.36.097 1.001.283 1.649.363.173.023.348.067.523.118.07.024.138.048.21.067.12.048.231.093.335.126.067.026.14.045.203.06.268.054.82.061 1.487.043a96 96 0 0 0 .909-.03 9.3 9.3 0 0 1 .398 1.163s-.045-.007-.138-.011c.08.14.138.275.181.428l.04.063.237 2.074.642 1.128z" fill-opacity=".3" fill="#8F405F"/><path d="M99.888 21.715s-.749-.787-2.342-.087c-.015.007.14.59.834.662.592.06 1.26-.152 1.508-.575" fill="#004753"/></g></svg>